<svg xmlns="http://www.w3.org/2000/svg" viewBox="0 0 64.67 56.52"><title>airlines</title><g id="Layer_2" data-name="Layer 2"><g id="Layer_1-2" data-name="Layer 1"><path d="M57.58,22.87H37.24s-16.7-21.31-17-21.64A2,2,0,0,0,18.75.32C17.6.19,16.1.05,15.62,0S14.65.2,15,1c.39,1.05,9,21.88,9,21.88H6.78S3.46,16.51,2.9,15.42c-.26-.5-.81-.62-1.56-.64H.39c-.16,0-.42,0-.37.47.05.63,2.67,13,2.67,13S.14,40.65,0,41.27c-.09.4.21.46.37.46h1c1.3,0,1.29-.1,1.56-.63.56-1.09,3.88-7.45,3.88-7.45H23.91s-8.57,20.83-9,21.87c-.3.8.12,1,.67,1l3.13-.31a2,2,0,0,0,1.52-.91c.27-.33,17-21.64,17-21.64H57.58c5.07,0,7.09-4.08,7.09-5.39s-2-5.39-7.09-5.39m1,6H10.33a.77.77,0,0,1,0-1.53H58.55a.77.77,0,0,1,0,1.53" fill="#00162c"/></g></g></svg>