<svg xmlns="http://www.w3.org/2000/svg" viewBox="0 0 60.55 55.92"><title>asset-class-equities</title><g id="Layer_2" data-name="Layer 2"><g id="Layer_1-2" data-name="Layer 1"><path d="M59.6,8.42a.94.94,0,0,1-.94.94h0a.94.94,0,0,1-.57-.2L54.6,6.45,39,24.21a.93.93,0,0,1-1.19.18L22.07,14.8,6.7,30.16a.93.93,0,0,1-1.32-1.32L21.27,13a.92.92,0,0,1,1.14-.13L38.1,22.38l15-17.08L49.65,2.6a.94.94,0,0,1-.32-1,.92.92,0,0,1,.78-.68L57.6,0a.93.93,0,0,1,1,.81l.91,7.3a1,1,0,0,1,.05.3M12.24,55V36.6a.94.94,0,0,0-.94-.93H.93A.93.93,0,0,0,0,36.6V55a.93.93,0,0,0,.93.93H11.3a.94.94,0,0,0,.94-.93M1.87,37.54h8.5V54.05H1.87ZM28.35,55V25.18a.94.94,0,0,0-.94-.94H17a.93.93,0,0,0-.93.94V55a.93.93,0,0,0,.93.93H27.41a.94.94,0,0,0,.94-.93M18,26.11h8.49V54.05H18ZM44.45,55V32.05a.94.94,0,0,0-.93-.94H33.15a.94.94,0,0,0-.94.94V55a.94.94,0,0,0,.94.93H43.52a.93.93,0,0,0,.93-.93M34.08,33h8.5V54.05h-8.5ZM60.55,55V18.62a.93.93,0,0,0-.93-.94H49.25a.94.94,0,0,0-.93.94V55a.93.93,0,0,0,.93.93H59.62a.93.93,0,0,0,.93-.93M50.19,19.55h8.49v34.5H50.19Z" fill="#00162c"/></g></g></svg>