<svg xmlns="http://www.w3.org/2000/svg" viewBox="0 0 34.89 62.57"><title>communication-services</title><g id="Layer_2" data-name="Layer 2"><g id="Layer_1-2" data-name="Layer 1"><path d="M9.9,19.68a1.21,1.21,0,0,0,.86.36,1.17,1.17,0,0,0,.85-.36,1.2,1.2,0,0,0,0-1.71,8.16,8.16,0,0,1,0-11.53A1.21,1.21,0,0,0,9.9,4.73a10.59,10.59,0,0,0,0,15" fill="#ffc629"/><path d="M6.39,24.41a1.17,1.17,0,0,0,.85-.36,1.2,1.2,0,0,0,0-1.71,14.35,14.35,0,0,1,0-20.27,1.2,1.2,0,0,0,0-1.71,1.2,1.2,0,0,0-1.71,0,16.74,16.74,0,0,0,0,23.69,1.2,1.2,0,0,0,.86.36" fill="#ffc629"/><path d="M23.28,19.68a1.17,1.17,0,0,0,.85.36,1.2,1.2,0,0,0,.86-.36A10.57,10.57,0,0,0,25,4.73a1.21,1.21,0,1,0-1.71,1.71,8.16,8.16,0,0,1,0,11.53,1.2,1.2,0,0,0,0,1.71" fill="#ffc629"/><path d="M27.65,22.34a1.22,1.22,0,0,0,.85,2.07,1.18,1.18,0,0,0,.86-.36,16.74,16.74,0,0,0,0-23.69,1.2,1.2,0,0,0-1.71,0,1.2,1.2,0,0,0,0,1.71,14.35,14.35,0,0,1,0,20.27" fill="#ffc629"/><path d="M33.27,59.34H31.52L26.9,43.58h0l-1.74-5.94h0l-2.41-8.2h0L18.92,16.36a4.43,4.43,0,1,0-3.08,0l-8,27.22h0L3.23,59.34H1.62a1.62,1.62,0,1,0,0,3.23H33.27a1.62,1.62,0,1,0,0-3.23m-5.61-4.56-8.08-5.34L25,45.83Zm-10.28-35L20,28.57H14.78ZM14.07,31h6.61l1.7,5.79h-10Zm-2.41,8.22H23.09l1.23,4.19L17.38,48,10.43,43.4ZM9.72,45.83l5.46,3.61L7.1,54.78ZM6,58.38l11.34-7.49,11.34,7.49.28,1H5.76Z" fill="#ffc629"/></g></g></svg>