<svg xmlns="http://www.w3.org/2000/svg" viewBox="0 0 36.69 63.47"><title>communication-services-outline</title><g id="Layer_2" data-name="Layer 2"><g id="Layer_1-2" data-name="Layer 1"><path d="M10.8,19.68a1.21,1.21,0,0,0,.86.36,1.17,1.17,0,0,0,.85-.36,1.2,1.2,0,0,0,0-1.71,8.16,8.16,0,0,1,0-11.53A1.21,1.21,0,1,0,10.8,4.73a10.59,10.59,0,0,0,0,15" fill="#00162c"/><path d="M7.29,24.41a1.17,1.17,0,0,0,.85-.36,1.2,1.2,0,0,0,0-1.71,14.35,14.35,0,0,1,0-20.27A1.21,1.21,0,0,0,6.43.35a16.75,16.75,0,0,0,0,23.7,1.2,1.2,0,0,0,.86.36" fill="#00162c"/><path d="M24.18,19.68A1.17,1.17,0,0,0,25,20a1.2,1.2,0,0,0,.86-.36,10.57,10.57,0,0,0,0-14.95,1.21,1.21,0,0,0-1.71,1.71,8.16,8.16,0,0,1,0,11.53,1.2,1.2,0,0,0,0,1.71" fill="#00162c"/><path d="M28.55,22.34a1.22,1.22,0,0,0,.85,2.07,1.18,1.18,0,0,0,.86-.36,16.74,16.74,0,0,0,0-23.69,1.2,1.2,0,0,0-1.71,0,1.2,1.2,0,0,0,0,1.71,14.35,14.35,0,0,1,0,20.27" fill="#00162c"/><path d="M34.17,59.34H32.42L27.8,43.58h0l-1.74-5.94h0l-2.41-8.2h0L19.82,16.36a4.43,4.43,0,1,0-3.08,0l-8,27.22h0L4.13,59.34H2.52a1.62,1.62,0,1,0,0,3.23H34.17a1.62,1.62,0,1,0,0-3.23m-5.61-4.56-8.08-5.34,5.45-3.61Zm-10.28-35,2.59,8.84H15.68ZM15,31h6.61l1.7,5.79h-10Zm-2.41,8.22H24l1.23,4.19L18.28,48l-7-4.58Zm-1.94,6.62,5.46,3.61L8,54.78ZM6.94,58.38l11.34-7.49,11.34,7.49.28,1H6.66Z" fill="none" stroke="#00162c" stroke-miterlimit="10" stroke-width="1.8"/></g></g></svg>