<svg xmlns="http://www.w3.org/2000/svg" viewBox="0 0 69.37 52.78"><title>consumer-staples-outline</title><g id="Layer_2" data-name="Layer 2"><g id="Layer_1-2" data-name="Layer 1"><path d="M67,13.8l-11.88,0h-.86a2.91,2.91,0,0,1,0-.38c.07-.63.12-1.26.23-1.89a15.6,15.6,0,0,1,3.69-8.43,1.28,1.28,0,0,0,0-1.78,1.24,1.24,0,0,0-1.78-.05A10.2,10.2,0,0,0,55,2.9a20.76,20.76,0,0,0-3.33,10.23c0,.49-.16.66-.68.65-3.78,0-7.55,0-11.33,0a1.32,1.32,0,1,0,0,2.61h2.16c.09.95.17,1.83.25,2.71q.53,5.79,1.06,11.58t1,11.64c.23,2.49.45,5,.71,7.47a1.27,1.27,0,0,0,1.42,1.29h14a1.3,1.3,0,0,0,1.46-1.32c.21-2,.4-4,.59-6,.31-3.26.61-6.53.92-9.8L64.44,21.6c.17-1.71.33-3.42.49-5.1.07,0,.09-.06.11-.06l2.09,0a1.24,1.24,0,0,0,1.26-.89A1.3,1.3,0,0,0,67,13.8" fill="none" stroke="#00162c" stroke-miterlimit="10" stroke-width="1.8"/><path d="M30.6,18.63a20.91,20.91,0,0,0-13.68-2.9c-6,.93-15.42,5.84-16,12.66a4.85,4.85,0,0,0,1.27,3.72A5,5,0,0,0,5.83,33.7H33.77a4.15,4.15,0,0,0,3.69-1.84c1.18-1.8.94-4.4.17-6.18-1.14-2.63-3.51-5-7-7.06" fill="none" stroke="#00162c" stroke-miterlimit="10" stroke-width="1.8"/><path d="M8.78,28.55a1.14,1.14,0,0,1-1.21-1c0-.66.47-1.06,1.28-1.06a1,1,0,0,1,1.07,1.07,1.09,1.09,0,0,1-1.14,1" fill="#00162c" fill-rule="evenodd"/><path d="M17.37,29a.67.67,0,0,1-.71-.61c0-.39.27-.63.76-.63a.59.59,0,0,1,.63.63.64.64,0,0,1-.68.61" fill="#00162c" fill-rule="evenodd"/><path d="M17.56,23.48A1.38,1.38,0,0,1,16.2,22.1a1.37,1.37,0,0,1,1.48-1.24,1.34,1.34,0,0,1,1.39,1.39,1.42,1.42,0,0,1-1.51,1.23" fill="#00162c" fill-rule="evenodd"/><path d="M26.47,25.4a1.13,1.13,0,0,1-1.15-1,1.11,1.11,0,0,1,1.21-1,1.05,1.05,0,1,1-.06,2.09" fill="#00162c" fill-rule="evenodd"/><path d="M31.51,29.69a1.14,1.14,0,0,1-1.15-1.05,1.19,1.19,0,0,1,2.37,0,1.15,1.15,0,0,1-1.22,1.05" fill="#00162c" fill-rule="evenodd"/><path d="M35.61,42.6H3.36a2.37,2.37,0,0,0-1.83.67A2.24,2.24,0,0,0,1,45.05a8.8,8.8,0,0,0,1.73,4.79,5,5,0,0,0,4.2,2c8.92,0,17.17,0,25.22,0h0a5,5,0,0,0,4.38-2.31A7.85,7.85,0,0,0,38,45.11a2.46,2.46,0,0,0-.59-1.89,2.4,2.4,0,0,0-1.81-.62" fill="none" stroke="#00162c" stroke-miterlimit="10" stroke-width="1.8"/><path d="M2.8,38.7a7.76,7.76,0,0,0,3,1.82,4.6,4.6,0,0,0,3.42-.22c1.12-.58,2-1.75,3.22-2a3.61,3.61,0,0,1,2.45.66c.74.46,1.39,1,2.14,1.47a6,6,0,0,0,6.12-.21c.9-.59,1.72-1.46,2.79-1.51,1.64-.09,2.47,1.4,3.78,2a4.58,4.58,0,0,0,4.83-.75,12.5,12.5,0,0,0,2.7-2,1.15,1.15,0,0,0-.1-1.76c-1-.9-2.78.43-3.58,1-.64.5-1.25,1.31-2.13,1.33-1.06,0-1.78-1-2.6-1.66a4.48,4.48,0,0,0-4.57-.62c-1.55.68-2.78,2.26-4.47,2.2a5.83,5.83,0,0,1-2.92-1.39,8.67,8.67,0,0,0-3.06-1.4,4.66,4.66,0,0,0-3.28.47,18.39,18.39,0,0,0-1.75,1.42,2.68,2.68,0,0,1-2.08.67A3,3,0,0,1,5.16,37.3a5.09,5.09,0,0,0-1.38-1.24,1.42,1.42,0,0,0-1.71.22A1.37,1.37,0,0,0,2,37.61,3.32,3.32,0,0,0,2.8,38.7" fill="#00162c" fill-rule="evenodd"/></g></g></svg>