<svg xmlns="http://www.w3.org/2000/svg" viewBox="0 0 67.57 50.98"><title>consumer-staples-outline_1</title><g id="Layer_2" data-name="Layer 2"><g id="Layer_1-2" data-name="Layer 1"><path d="M66.09,12.9l-11.88,0h-.86a2.91,2.91,0,0,1,0-.38c.07-.63.12-1.26.23-1.89a15.6,15.6,0,0,1,3.69-8.43A1.28,1.28,0,0,0,57.2.4,1.24,1.24,0,0,0,55.42.35,10.2,10.2,0,0,0,54.06,2a20.76,20.76,0,0,0-3.33,10.23c0,.49-.16.66-.68.66-3.78,0-7.55,0-11.33,0a1.32,1.32,0,1,0,0,2.61h2.16c.09,1,.17,1.83.25,2.71Q41.65,24,42.19,29.8t1,11.64c.23,2.49.45,5,.71,7.48a1.27,1.27,0,0,0,1.42,1.28h14a1.3,1.3,0,0,0,1.46-1.32c.21-2,.4-4,.59-6,.31-3.27.61-6.54.92-9.81L63.54,20.7c.17-1.71.33-3.42.49-5.1.07,0,.09-.06.11-.06l2.09,0a1.24,1.24,0,0,0,1.26-.89,1.3,1.3,0,0,0-1.4-1.72" fill="#f18a00" fill-rule="evenodd"/><path d="M29.7,17.73A20.91,20.91,0,0,0,16,14.83C10,15.76.6,20.67,0,27.49a4.85,4.85,0,0,0,1.27,3.72,4.92,4.92,0,0,0,3.64,1.6H32.87A4.15,4.15,0,0,0,36.56,31c1.18-1.8.94-4.4.17-6.18-1.14-2.63-3.51-5-7-7.06M7.88,27.65a1.14,1.14,0,0,1-1.21-1c0-.65.47-1.05,1.28-1.06A1,1,0,0,1,9,26.62a1.09,1.09,0,0,1-1.14,1m8.59.49a.67.67,0,0,1-.71-.61c0-.39.27-.63.76-.63a.6.6,0,0,1,.63.63.64.64,0,0,1-.68.61m.19-5.56A1.38,1.38,0,0,1,15.3,21.2,1.37,1.37,0,0,1,16.78,20a1.34,1.34,0,0,1,1.39,1.39,1.41,1.41,0,0,1-1.51,1.23m8.91,1.92a1.13,1.13,0,0,1-1.15-1.05,1.11,1.11,0,0,1,1.21-1,1.05,1.05,0,1,1-.06,2.09m5,4.29a1.14,1.14,0,0,1-1.15-1.05,1.19,1.19,0,0,1,2.37,0,1.15,1.15,0,0,1-1.22,1.05" fill="#f18a00" fill-rule="evenodd"/><path d="M34.71,41.7H2.46a2.37,2.37,0,0,0-1.83.67,2.24,2.24,0,0,0-.49,1.78,8.8,8.8,0,0,0,1.73,4.79,5,5,0,0,0,4.2,2c8.92,0,17.17,0,25.22,0h0a5.06,5.06,0,0,0,4.38-2.31,7.85,7.85,0,0,0,1.41-4.46,2.48,2.48,0,0,0-.59-1.89,2.4,2.4,0,0,0-1.81-.62" fill="#f18a00" fill-rule="evenodd"/><path d="M1.9,37.8a7.76,7.76,0,0,0,3,1.82,4.6,4.6,0,0,0,3.42-.22c1.12-.58,2-1.74,3.22-2A3.61,3.61,0,0,1,14,38.1c.74.46,1.39,1,2.14,1.47a6,6,0,0,0,6.12-.21c.9-.59,1.72-1.46,2.79-1.51,1.64-.09,2.47,1.4,3.78,2,1.69.84,3.37.29,4.83-.75a12.17,12.17,0,0,0,2.7-2,1.15,1.15,0,0,0-.1-1.76c-1-.9-2.78.43-3.58,1-.64.5-1.25,1.31-2.13,1.33-1.06,0-1.78-1-2.6-1.66a4.48,4.48,0,0,0-4.57-.62c-1.55.68-2.78,2.26-4.47,2.2A5.83,5.83,0,0,1,16,36.29a8.85,8.85,0,0,0-3.06-1.4,4.66,4.66,0,0,0-3.28.47,18.39,18.39,0,0,0-1.75,1.42,2.68,2.68,0,0,1-2.08.67,3,3,0,0,1-1.52-1,5.12,5.12,0,0,0-1.38-1.25,1.42,1.42,0,0,0-1.71.22,1.37,1.37,0,0,0-.12,1.33A3.32,3.32,0,0,0,1.9,37.8" fill="#f18a00" fill-rule="evenodd"/></g></g></svg>