<svg xmlns="http://www.w3.org/2000/svg" viewBox="0 0 63.65 58.15"><title>consumer-discretionary-outline</title><g id="Layer_2" data-name="Layer 2"><g id="Layer_1-2" data-name="Layer 1"><path d="M13.34,7.86h47c2.27,0,2.73.61,2.21,2.82-1.53,6.5-3.06,13-4.53,19.5a1.85,1.85,0,0,1-2.13,1.68q-18,0-35.9,0H18.44c.37,1.8.69,3.49,1.08,5.16.05.21.4.43.66.5a3.28,3.28,0,0,0,.94,0H52.5c.4,0,.8,0,1.19,0a1.35,1.35,0,1,1,.07,2.7,9.32,9.32,0,0,1-1.18,0H19.3c-1.64,0-2.06-.32-2.41-2q-3-14.2-6-28.4c-.38-1.78-.82-3.55-1.12-5.34-.13-.79-.49-.94-1.18-.92-1.78,0-3.56,0-5.35,0A9.34,9.34,0,0,1,2.06,3.6C1.27,3.49.74,2.94.94,2.23,1.09,1.72,1.73,1,2.18,1,5.06.86,8,.9,10.85.94c1,0,1.23.87,1.4,1.65C12.62,4.29,13,6,13.34,7.86Z" fill="none" stroke="#00162c" stroke-miterlimit="10" stroke-width="1.8"/><path d="M46.55,44.6a6.31,6.31,0,1,1-6.19,6.64A6.22,6.22,0,0,1,46.55,44.6Z" fill="none" stroke="#00162c" stroke-miterlimit="10" stroke-width="1.8"/><path d="M31.82,51a6.34,6.34,0,0,1-6.26,6.28A6.44,6.44,0,0,1,19.2,50.8a6.29,6.29,0,0,1,6.3-6.21A6.2,6.2,0,0,1,31.82,51Z" fill="none" stroke="#00162c" stroke-miterlimit="10" stroke-width="1.8"/></g></g></svg>