<svg xmlns="http://www.w3.org/2000/svg" viewBox="0 0 61.85 56.35"><title>consumer-discretionary</title><g id="Layer_2" data-name="Layer 2"><g id="Layer_1-2" data-name="Layer 1"><path d="M12.44,7h47c2.27,0,2.73.61,2.21,2.82-1.53,6.5-3.06,13-4.53,19.5A1.86,1.86,0,0,1,55,31q-18,0-35.9,0H17.54c.37,1.8.69,3.49,1.08,5.16.05.21.4.43.66.5a3.28,3.28,0,0,0,.94,0H51.6c.4,0,.8,0,1.19,0a1.35,1.35,0,1,1,.07,2.7,9.32,9.32,0,0,1-1.18,0H18.4c-1.64,0-2.06-.32-2.41-2Q13,23.23,10,9c-.38-1.78-.82-3.55-1.12-5.34-.13-.79-.49-.94-1.18-.93-1.78,0-3.56,0-5.35,0A9.34,9.34,0,0,1,1.16,2.7C.37,2.59-.16,2,0,1.33.19.81.83.09,1.28.07,4.16,0,7.06,0,10,0c1,0,1.23.87,1.4,1.65.37,1.69.71,3.4,1.09,5.27" fill="#ffc629"/><path d="M45.65,43.7a6.31,6.31,0,1,1-6.19,6.64,6.22,6.22,0,0,1,6.19-6.64" fill="#ffc629"/><path d="M30.92,50.07a6.34,6.34,0,0,1-6.26,6.28A6.44,6.44,0,0,1,18.3,49.9a6.29,6.29,0,0,1,6.3-6.21,6.2,6.2,0,0,1,6.32,6.38" fill="#ffc629"/></g></g></svg>