<svg xmlns="http://www.w3.org/2000/svg" viewBox="0 0 66.53 61.5"><title>financials-outline</title><g id="Layer_2" data-name="Layer 2"><g id="Layer_1-2" data-name="Layer 1"><path d="M65.63,34.67q0-6.87,0-13.75a1.6,1.6,0,0,0-1.82-1.84c-2.1,0-4.2,0-6.3,0-1.35,0-2,.59-2,1.95V58c0,1.81.57,2.56,2,2.58,2,0,4.07,0,6.1,0,1.51,0,2-.7,2-2.72V34.67" fill="none" stroke="#00162c" stroke-miterlimit="10" stroke-width="1.8"/><path d="M50.06,22.15H43.87c-1.44,0-2,.55-2,2q0,6.06,0,12.1h0c0,4.1,0,16.46,0,21.89,0,1.68.56,2.43,1.82,2.45q3.2,0,6.39,0c1.23,0,1.86-.84,1.86-2.46C52,47.3,52,32.2,52,24c0-1.31-.59-1.88-1.9-1.89" fill="none" stroke="#00162c" stroke-miterlimit="10" stroke-width="1.8"/><path d="M24.64,38.15c0-3.48,0-7,0-10.45,0-1.32-.56-1.87-1.89-1.88H16.46a1.66,1.66,0,0,0-1.9,1.89c0,6.91,0,21.13,0,30.29,0,1.81.56,2.56,1.94,2.58,2,0,4.07,0,6.1,0,1.49,0,2-.75,2-2.73V38.15Z" fill="none" stroke="#00162c" stroke-miterlimit="10" stroke-width="1.8"/><path d="M36.3,29H30.4c-1.69,0-2.18.5-2.18,2.21V57.81c0,2,.53,2.75,2,2.77,2,0,4,0,6,0,1.56,0,2.06-.69,2.06-2.81,0-3.72,0-15.13,0-17.94h0c0-2.93,0-5.87,0-8.81,0-1.43-.58-2-2-2" fill="none" stroke="#00162c" stroke-miterlimit="10" stroke-width="1.8"/><path d="M9.17,33.93q-3.25,0-6.49,0A1.57,1.57,0,0,0,.92,35.74c0,2.1,0,4.2,0,6.3h0c0,2.16,0,13.22,0,16.09,0,1.61.57,2.43,1.75,2.45,2.19,0,4.39,0,6.59,0,1.13,0,1.73-.83,1.73-2.34,0-5.7,0-18.22,0-22.51a1.59,1.59,0,0,0-1.81-1.78" fill="none" stroke="#00162c" stroke-miterlimit="10" stroke-width="1.8"/><path d="M6,21.66a3.21,3.21,0,0,0,3.2-3.21,3.32,3.32,0,0,0-.13-.9l8.25-4.77a3.2,3.2,0,0,0,5.19-.8l7.57,1.67a3.2,3.2,0,0,0,6.4-.06,3.38,3.38,0,0,0-.08-.72l8.08-4.06A3.17,3.17,0,0,0,47,10a3.21,3.21,0,0,0,3.21-3.21v0l7.61-2a3.21,3.21,0,1,0-.38-1.52v.06l-7.61,2a3.21,3.21,0,0,0-6,1.51,3.38,3.38,0,0,0,.08.72l-8.08,4.06a3.19,3.19,0,0,0-5.31.66L22.87,10.5a3.21,3.21,0,0,0-6.41.07,3.38,3.38,0,0,0,.13.9L8.34,16.24A3.2,3.2,0,1,0,6,21.66" fill="#00162c"/></g></g></svg>