<svg xmlns="http://www.w3.org/2000/svg" viewBox="0 0 68.45 64.53"><title>health-care-outline</title><g id="Layer_2" data-name="Layer 2"><g id="Layer_1-2" data-name="Layer 1"><path d="M61.17,6.38c-7.84-8-19.84-7.15-26.81,1.8h-.27c-7-8.95-19-9.76-26.82-1.8-6.15,6.25-7.91,16-5,24.3H14.13l6.64-19a1.78,1.78,0,0,1,1.79-1.26A1.87,1.87,0,0,1,24.15,12l5.57,28.64L34.89,20a1.84,1.84,0,0,1,1.67-1.47,1.71,1.71,0,0,1,1.72,1.39l3.13,10.76h12.9a2,2,0,0,1,0,4H40.14a1.82,1.82,0,0,1-1.69-1.39L36.72,27.4,31.21,49.45a1.83,1.83,0,0,1-1.71,1.47h-.05a1.86,1.86,0,0,1-1.68-1.59l-5.84-30L17,33.45a1.79,1.79,0,0,1-1.64,1.28H4.15A21.3,21.3,0,0,0,5.7,37a3.76,3.76,0,0,0,.25.31A174.15,174.15,0,0,0,34.28,63.43l.6-.41A159.47,159.47,0,0,0,62.5,37.32c.08-.1.17-.2.25-.31,7-8.95,6.27-22.67-1.58-30.63" fill="none" stroke="#00162c" stroke-miterlimit="10" stroke-width="1.8"/></g></g></svg>