<svg xmlns="http://www.w3.org/2000/svg" viewBox="0 0 66.65 62.53"><title>health-care-outline_1</title><g id="Layer_2" data-name="Layer 2"><g id="Layer_1-2" data-name="Layer 1"><path d="M60.27,5.48c-7.84-8-19.84-7.15-26.81,1.8h-.27c-7-8.95-19-9.76-26.82-1.8-6.15,6.25-7.91,16-5,24.3H13.23l6.64-19a1.8,1.8,0,0,1,1.79-1.27,1.9,1.9,0,0,1,1.59,1.58l5.57,28.64L34,19.1a1.84,1.84,0,0,1,1.67-1.47A1.71,1.71,0,0,1,37.38,19l3.13,10.76h12.9a2,2,0,0,1,0,4H39.24a1.81,1.81,0,0,1-1.69-1.38L35.82,26.5l-5.51,22A1.83,1.83,0,0,1,28.6,50h-.05a1.86,1.86,0,0,1-1.68-1.59L21,18.4l-5,14.15a1.76,1.76,0,0,1-1.64,1.27H3.25A20.46,20.46,0,0,0,4.8,36.11a3.76,3.76,0,0,0,.25.31A174.15,174.15,0,0,0,33.38,62.53l.6-.41A159.47,159.47,0,0,0,61.6,36.42c.08-.1.17-.2.25-.31,7-8.95,6.27-22.67-1.58-30.63" fill="#e54360"/></g></g></svg>