<svg xmlns="http://www.w3.org/2000/svg" viewBox="0 0 54.13 62.57"><title>industrials</title><g id="Layer_2" data-name="Layer 2"><g id="Layer_1-2" data-name="Layer 1"><path d="M12.25,16.22a3.84,3.84,0,0,0,2.15-.65,7.69,7.69,0,0,0,11.83,1,5.11,5.11,0,0,0,8.66-.5,5,5,0,0,0,1.56.24,5.12,5.12,0,0,0,0-10.23,5.21,5.21,0,0,0-1.69.29,5.43,5.43,0,0,0,.15-1.22A5.12,5.12,0,0,0,24.7,4.59a7.59,7.59,0,0,0-4-1.12,7.69,7.69,0,0,0-7.3,5.26,3.78,3.78,0,0,0-1.17-.2,3.85,3.85,0,1,0,0,7.69" fill="#17479e"/><path d="M2,29.26a1.94,1.94,0,0,0,1.11-.34,3.93,3.93,0,0,0,6,.51,2.61,2.61,0,0,0,4.42-.26,2.62,2.62,0,1,0,.8-5.11,2.84,2.84,0,0,0-.87.15,2.57,2.57,0,0,0,.08-.62,2.61,2.61,0,0,0-5.21-.27,3.85,3.85,0,0,0-2-.58,3.93,3.93,0,0,0-3.73,2.69,2,2,0,0,0-.6-.1,2,2,0,0,0,0,3.93" fill="#17479e"/><path d="M53.8,39.75H52a.34.34,0,0,1-.34-.32L49.78,6.26A.32.32,0,0,0,49.45,6h-4a.33.33,0,0,0-.33.31L42.56,39.19a.35.35,0,0,1-.34.31H39.76a.34.34,0,0,1-.17,0l-8.54-4.91a.34.34,0,0,0-.51.28l-.09,4a.34.34,0,0,1-.51.28l-9.1-5.39a.33.33,0,0,0-.51.28V38.9a.34.34,0,0,1-.51.29l-9.2-5.61a.34.34,0,0,0-.51.29l.11,4.92a.34.34,0,0,1-.5.3L.5,33.91a.34.34,0,0,0-.5.3v28a.34.34,0,0,0,.34.33H53.8a.33.33,0,0,0,.33-.33V40.08a.33.33,0,0,0-.33-.33m-40,12.41a.49.49,0,0,1-.49.49H2.45A.48.48,0,0,1,2,52.16v-3a.48.48,0,0,1,.48-.49H13.26a.49.49,0,0,1,.49.49Zm0-4.94a.48.48,0,0,1-.49.48H2.45A.47.47,0,0,1,2,47.22v-3a.48.48,0,0,1,.48-.48H13.26a.49.49,0,0,1,.49.48Zm12.66,4.94a.49.49,0,0,1-.48.49H15.12a.49.49,0,0,1-.49-.49v-3a.49.49,0,0,1,.49-.49H25.93a.49.49,0,0,1,.48.49Zm0-4.94a.48.48,0,0,1-.48.48H15.12a.48.48,0,0,1-.49-.48v-3a.49.49,0,0,1,.49-.48H25.93a.49.49,0,0,1,.48.48Zm12.67,4.94a.49.49,0,0,1-.49.49H27.78a.49.49,0,0,1-.49-.49v-3a.49.49,0,0,1,.49-.49H38.59a.49.49,0,0,1,.49.49Zm0-4.94a.48.48,0,0,1-.49.48H27.78a.48.48,0,0,1-.49-.48v-3a.49.49,0,0,1,.49-.48H38.59a.49.49,0,0,1,.49.48Zm12.66,4.94a.49.49,0,0,1-.48.49H40.45a.49.49,0,0,1-.49-.49v-3a.49.49,0,0,1,.49-.49H51.26a.49.49,0,0,1,.48.49Zm0-4.94a.48.48,0,0,1-.48.48H40.45a.48.48,0,0,1-.49-.48v-3a.49.49,0,0,1,.49-.48H51.26a.49.49,0,0,1,.48.48Z" fill="#17479e"/></g></g></svg>