<svg xmlns="http://www.w3.org/2000/svg" viewBox="0 0 55.93 64.37"><title>industrials-outline</title><g id="Layer_2" data-name="Layer 2"><g id="Layer_1-2" data-name="Layer 1"><path d="M13.15,17.12a3.84,3.84,0,0,0,2.15-.65,7.69,7.69,0,0,0,11.83,1,5.11,5.11,0,0,0,8.66-.5,5,5,0,0,0,1.56.24A5.12,5.12,0,0,0,37.35,7a5.21,5.21,0,0,0-1.69.29A5.43,5.43,0,0,0,35.81,6,5.12,5.12,0,0,0,25.6,5.49a7.59,7.59,0,0,0-4-1.12,7.69,7.69,0,0,0-7.3,5.26,3.78,3.78,0,0,0-1.17-.2,3.85,3.85,0,1,0,0,7.69" fill="none" stroke="#00162c" stroke-miterlimit="10" stroke-width="1.8"/><path d="M2.94,30.16a1.94,1.94,0,0,0,1.11-.34,3.92,3.92,0,0,0,6,.5,2.6,2.6,0,0,0,4.42-.25,2.62,2.62,0,1,0,.8-5.11,2.84,2.84,0,0,0-.87.15,2.57,2.57,0,0,0,.08-.62,2.61,2.61,0,0,0-5.21-.27,3.85,3.85,0,0,0-2-.58,3.93,3.93,0,0,0-3.73,2.69,2,2,0,0,0-.6-.1,2,2,0,0,0,0,3.93" fill="none" stroke="#00162c" stroke-miterlimit="10" stroke-width="1.8"/><path d="M54.7,40.65H52.86a.34.34,0,0,1-.34-.32L50.68,7.16a.32.32,0,0,0-.33-.31h-4a.33.33,0,0,0-.33.3L43.46,40.09a.35.35,0,0,1-.34.31H40.66a.34.34,0,0,1-.17,0L32,35.44a.34.34,0,0,0-.51.28l-.09,4a.34.34,0,0,1-.51.28l-9.1-5.39a.33.33,0,0,0-.51.28V39.8a.34.34,0,0,1-.51.29l-9.2-5.61a.34.34,0,0,0-.51.29l.11,4.92a.34.34,0,0,1-.5.3L1.4,34.81a.34.34,0,0,0-.5.3v28a.34.34,0,0,0,.34.33H54.7a.33.33,0,0,0,.33-.33V41a.33.33,0,0,0-.33-.33M14.65,53.06a.49.49,0,0,1-.49.49H3.35a.48.48,0,0,1-.48-.49v-3a.48.48,0,0,1,.48-.49H14.16a.49.49,0,0,1,.49.49Zm0-5.94a.48.48,0,0,1-.49.48H3.35a.47.47,0,0,1-.48-.48v-3a.48.48,0,0,1,.48-.48H14.16a.49.49,0,0,1,.49.48Zm12.66,5.94a.49.49,0,0,1-.48.49H16a.49.49,0,0,1-.49-.49v-3a.49.49,0,0,1,.49-.49H26.83a.49.49,0,0,1,.48.49Zm0-5.94a.48.48,0,0,1-.48.48H16a.48.48,0,0,1-.49-.48v-3a.49.49,0,0,1,.49-.48H26.83a.49.49,0,0,1,.48.48ZM40,53.06a.49.49,0,0,1-.49.49H28.68a.49.49,0,0,1-.49-.49v-3a.49.49,0,0,1,.49-.49H39.49a.49.49,0,0,1,.49.49Zm0-5.94a.48.48,0,0,1-.49.48H28.68a.48.48,0,0,1-.49-.48v-3a.49.49,0,0,1,.49-.48H39.49a.49.49,0,0,1,.49.48Zm12.66,5.94a.49.49,0,0,1-.48.49H41.35a.49.49,0,0,1-.49-.49v-3a.49.49,0,0,1,.49-.49H52.16a.49.49,0,0,1,.48.49Zm0-5.94a.48.48,0,0,1-.48.48H41.35a.48.48,0,0,1-.49-.48v-3a.49.49,0,0,1,.49-.48H52.16a.49.49,0,0,1,.48.48Z" fill="none" stroke="#00162c" stroke-miterlimit="10" stroke-width="1.8"/></g></g></svg>