<svg xmlns="http://www.w3.org/2000/svg" viewBox="0 0 62.99 62.57"><title>information-technology</title><g id="Layer_2" data-name="Layer 2"><g id="Layer_1-2" data-name="Layer 1"><path d="M0,32.58H0v0" fill="#898684"/><path d="M31.71,0c-.8,0-1.58,0-2.36.1,1.58,1.55,3.12,3,4.59,4.56a1.47,1.47,0,0,0,2,.41,4.77,4.77,0,0,1,5.54,1.35,5.08,5.08,0,0,1,.34,5.94,5,5,0,0,1-5.59,2,4.72,4.72,0,0,1-3.4-4.57,22.5,22.5,0,0,1,.6-3.29c-1.88-1.84-3.9-3.84-5.95-5.81a1.92,1.92,0,0,0-.47-.31A31.3,31.3,0,0,0,1.77,22.18c.16-.49.3-1,.49-1.46h.05a1.12,1.12,0,0,0,.23.71c1.28,1.41,2.61,2.77,3.92,4.14l.31-.15c0-.4.06-.79.06-1.18,0-2.2-.08-4.41,0-6.61a3,3,0,0,0-1.59-2.88c.31-.49.64-1,1-1.44.37.3.64.55.94.75a3.58,3.58,0,0,1,1.42,3.42c-.1,3-.07,6,0,9.05a2.62,2.62,0,0,0,.67,1.65C11.1,30.1,13,31.93,14.86,33.8a1,1,0,0,0,1.41.29,4.9,4.9,0,0,1,6,1.4,5,5,0,0,1,.15,5.94,4.88,4.88,0,0,1-5.64,1.79,4.76,4.76,0,0,1-3.24-5A12,12,0,0,1,14,35.89L8.59,30.25c0,2.59,0,5.08,0,7.57a1.22,1.22,0,0,0,.37.76c2.52,2.58,5.06,5.15,7.14,7.27,2-.08,3.5-.42,4.86-.12A4.76,4.76,0,0,1,24.19,52a4.93,4.93,0,0,1-6.41,3A4.84,4.84,0,0,1,15,48.51a1.39,1.39,0,0,0-.39-1.83q-3.57-3.47-7-7A2.68,2.68,0,0,1,6.89,38c-.06-2.93,0-5.86,0-8.8a1.74,1.74,0,0,0-.2-1.07C5,26.4,3.27,24.74,1.53,23A31.29,31.29,0,1,0,31.71,0M16.1,4.31c3.54,3.54,7,7,10.5,10.48a2.18,2.18,0,0,0,1.36.48c1.78.05,3.57.06,5.35,0a2.81,2.81,0,0,1,2.35.94c1.53,1.65,3.15,3.21,4.71,4.78,3-1.38,5.44-.94,6.92,1.19a4.92,4.92,0,0,1-6.74,7c-2.19-1.43-2.69-3.82-1.37-7.06-1.58-1.56-3.19-3.18-4.85-4.75A1.83,1.83,0,0,0,33.17,17c-1.79,0-3.57-.07-5.36,0a3,3,0,0,1-2.45-1c-2.54-2.63-5.16-5.18-7.74-7.77-1-1-2-2-3-3.07.46-.31.95-.58,1.43-.87M38.19,45.69A4.92,4.92,0,0,1,30,40.48a1.45,1.45,0,0,0-.41-1.94Q22.82,31.8,16.09,25a3,3,0,0,1-.77-1.85c-.1-1.9,0-3.82-.05-5.73a1.72,1.72,0,0,0-.22-1.07c-2-2.09-4-4.13-6.14-6.26.37-.4.74-.79,1.12-1.16C12.17,11,14.23,13,16.19,15A3.11,3.11,0,0,1,17,16.9c.11,1.91,0,3.82.07,5.73a2.55,2.55,0,0,0,.62,1.55c4.42,4.47,8.89,8.9,13.33,13.36a1.13,1.13,0,0,0,1.52.32,4.92,4.92,0,0,1,5.68,7.83m15.43,2.47a5,5,0,0,1-6.18.8c-2.72-1.78-2.84-4.45-1.67-6.89L11.42,7.68c.5-.44,1-.85,1.56-1.26L47.31,40.56c2.78-1.22,5.34-.73,6.82,1.37a5,5,0,0,1-.51,6.23" fill="#898684"/><path d="M43.37,28.37a3.27,3.27,0,0,0-.12-6.53,3.27,3.27,0,0,0,.12,6.53" fill="#898684"/><path d="M34.62,39.12a3.2,3.2,0,1,0,0,6.39,3.2,3.2,0,0,0,0-6.39" fill="#898684"/><path d="M50,41.6a3.17,3.17,0,0,0-3.2,3.23A3.25,3.25,0,0,0,50,48.06a3.3,3.3,0,0,0,3.23-3.25A3.26,3.26,0,0,0,50,41.6" fill="#898684"/><path d="M41,9.56A3.26,3.26,0,0,0,37.66,6.4a3.29,3.29,0,0,0-3.2,3.28A3.26,3.26,0,0,0,41,9.56" fill="#898684"/><path d="M21.63,38.68a3.25,3.25,0,1,0-6.49-.14,3.13,3.13,0,0,0,3.25,3.17,3.16,3.16,0,0,0,3.24-3" fill="#898684"/><path d="M22.73,50.38a3.23,3.23,0,0,0-3.18-3.29,3.27,3.27,0,0,0-.05,6.54,3.25,3.25,0,0,0,3.23-3.25" fill="#898684"/></g></g></svg>