<svg xmlns="http://www.w3.org/2000/svg" viewBox="0 0 63.97 63.97"><title>information-technology-outline</title><g id="Layer_2" data-name="Layer 2"><g id="Layer_1-2" data-name="Layer 1"><path d="M.28,33.28h0v0" fill="#898684"/><path d="M32,.7c-.8,0-1.58,0-2.36.1,1.58,1.55,3.12,3,4.59,4.56a1.45,1.45,0,0,0,2,.41A4.8,4.8,0,0,1,41.8,7.12a5.07,5.07,0,0,1,.33,5.94,5,5,0,0,1-5.59,2,4.72,4.72,0,0,1-3.39-4.57,22.5,22.5,0,0,1,.6-3.29c-1.88-1.84-3.91-3.84-6-5.81a1.69,1.69,0,0,0-.46-.31A31.31,31.31,0,0,0,2.05,22.89c.16-.5.3-1,.49-1.47h0a1.15,1.15,0,0,0,.23.72c1.27,1.4,2.61,2.76,3.92,4.13l.31-.15c0-.39.06-.79.06-1.18,0-2.2-.09-4.41,0-6.61a3,3,0,0,0-1.6-2.88c.32-.49.64-1,1-1.44.36.3.64.55.93.76a3.51,3.51,0,0,1,1.42,3.41c-.1,3-.06,6,0,9.06a2.78,2.78,0,0,0,.67,1.65c1.82,1.9,3.72,3.73,5.57,5.61a1.05,1.05,0,0,0,1.42.28,4.91,4.91,0,0,1,6,1.4,5.06,5.06,0,0,1,.15,5.94A4.88,4.88,0,0,1,17,43.92a4.76,4.76,0,0,1-3.24-5.05,12.94,12.94,0,0,1,.55-2.28L8.87,31c0,2.6,0,5.08,0,7.57a1.22,1.22,0,0,0,.37.76c2.52,2.59,5.06,5.15,7.14,7.27,2-.07,3.5-.42,4.86-.12a4.75,4.75,0,0,1,3.2,6.24,4.92,4.92,0,0,1-6.4,3,4.82,4.82,0,0,1-2.8-6.45,1.4,1.4,0,0,0-.4-1.84q-3.55-3.47-7-7.05a2.63,2.63,0,0,1-.68-1.64c-.07-2.93,0-5.86,0-8.79,0-.37,0-.86-.2-1.08-1.67-1.71-3.38-3.38-5.12-5.09A31.28,31.28,0,1,0,32,.7Z" fill="none" stroke="#00162c" stroke-miterlimit="10" stroke-width="1.4"/><path d="M16.38,5c3.53,3.54,7,7,10.49,10.49a2.29,2.29,0,0,0,1.37.47c1.78,0,3.57.06,5.35,0a2.81,2.81,0,0,1,2.35.94c1.53,1.65,3.15,3.21,4.7,4.78,3-1.37,5.45-.94,6.93,1.19a4.92,4.92,0,0,1-6.74,7c-2.19-1.43-2.69-3.82-1.38-7.06-1.57-1.56-3.18-3.18-4.85-4.75a1.78,1.78,0,0,0-1.15-.34c-1.79,0-3.58-.07-5.36,0a3,3,0,0,1-2.45-1C23.1,14.09,20.48,11.54,17.9,9c-1-1-1.95-2-3-3.07C15.41,5.57,15.9,5.3,16.38,5Z" fill="none" stroke="#00162c" stroke-miterlimit="10" stroke-width="1.4"/><path d="M38.47,46.39a4.92,4.92,0,0,1-8.17-5.21,1.45,1.45,0,0,0-.41-1.94Q23.1,32.5,16.37,25.71a3.12,3.12,0,0,1-.78-1.85c-.1-1.9,0-3.82,0-5.73a1.72,1.72,0,0,0-.22-1.07c-2-2.09-4-4.13-6.14-6.26.37-.4.73-.79,1.12-1.16,2.14,2.1,4.19,4.06,6.15,6.1a3.06,3.06,0,0,1,.79,1.86c.1,1.91,0,3.82.07,5.73a2.49,2.49,0,0,0,.62,1.55c4.42,4.47,8.89,8.9,13.33,13.36a1.13,1.13,0,0,0,1.52.32,4.92,4.92,0,0,1,5.68,7.83Z" fill="none" stroke="#00162c" stroke-miterlimit="10" stroke-width="1.4"/><path d="M53.9,48.86a5,5,0,0,1-6.18.8c-2.72-1.78-2.84-4.45-1.67-6.88L11.69,8.38c.51-.44,1-.85,1.57-1.26L47.59,41.26c2.78-1.22,5.33-.73,6.82,1.37A5.05,5.05,0,0,1,53.9,48.86Z" fill="none" stroke="#00162c" stroke-miterlimit="10" stroke-width="1.4"/><path d="M43.64,29.07a3.26,3.26,0,0,0-.11-6.52,3.26,3.26,0,0,0,.11,6.52" fill="#00162c"/><path d="M34.89,39.82a3.2,3.2,0,1,0,0,6.4,3.2,3.2,0,0,0,0-6.4" fill="#00162c"/><path d="M50.29,42.3a3.17,3.17,0,0,0-3.2,3.23,3.23,3.23,0,0,0,3.23,3.23,3.23,3.23,0,1,0,0-6.46" fill="#00162c"/><path d="M41.25,10.26a3.26,3.26,0,0,0-6.51.12,3.26,3.26,0,0,0,6.51-.12" fill="#00162c"/><path d="M21.91,39.38a3.25,3.25,0,1,0-6.49-.14,3.13,3.13,0,0,0,3.25,3.17,3.17,3.17,0,0,0,3.24-3" fill="#00162c"/><path d="M23,51.08a3.24,3.24,0,0,0-3.18-3.29,3.27,3.27,0,0,0,0,6.54A3.25,3.25,0,0,0,23,51.08" fill="#00162c"/></g></g></svg>