<svg xmlns="http://www.w3.org/2000/svg" viewBox="0 0 63.54 64.37"><title>materials-outline_1</title><g id="Layer_2" data-name="Layer 2"><g id="Layer_1-2" data-name="Layer 1"><path d="M58.9,61.92H46.26a7.24,7.24,0,0,0,5.91-7.1,7.61,7.61,0,0,0-.09-1.08h2.75l3.63-19.32H4.76L8.4,53.74h2.89a7.61,7.61,0,0,0-.09,1.08,7.24,7.24,0,0,0,5.91,7.1H4.29a.78.78,0,0,0-.78.78.77.77,0,0,0,.78.77H58.9a.77.77,0,0,0,.78-.77.78.78,0,0,0-.78-.78M49,54.82a4.07,4.07,0,1,1-8.14,0A3.81,3.81,0,0,1,41,53.74h1.62a2.45,2.45,0,0,0-.25,1.08,2.55,2.55,0,0,0,5.09,0,2.45,2.45,0,0,0-.25-1.08h1.62A3.81,3.81,0,0,1,49,54.82m-34.65,0a3.81,3.81,0,0,1,.15-1.08h1.62a2.45,2.45,0,0,0-.25,1.08,2.55,2.55,0,0,0,5.09,0,2.45,2.45,0,0,0-.25-1.08h1.62a3.81,3.81,0,0,1,.16,1.08,4.07,4.07,0,0,1-8.14,0m11.29,0a7.61,7.61,0,0,0-.09-1.08H37.81a7.61,7.61,0,0,0-.09,1.08,7.23,7.23,0,0,0,5.91,7.1H19.74a7.23,7.23,0,0,0,5.91-7.1" fill="none" stroke="#00162c" stroke-miterlimit="10" stroke-width="1.8"/><path d="M61.53,21.8h-3.1v-.05L4.37,21.8H2A1.12,1.12,0,0,0,.9,22.91v6.83A1.12,1.12,0,0,0,2,30.86H4.09l.36,1.89H58.78l.35-1.89h2.4a1.12,1.12,0,0,0,1.11-1.12V22.91a1.11,1.11,0,0,0-1.11-1.11" fill="none" stroke="#00162c" stroke-miterlimit="10" stroke-width="1.8"/><path d="M55.48,13.86a7.84,7.84,0,0,0-2.1-1.28l-.8-.27v-.08a6.12,6.12,0,0,0-5.93-6.3A5,5,0,0,0,45.7,6a4,4,0,0,0-3.9-3.64,3.88,3.88,0,0,0-2.42.86A6.26,6.26,0,0,0,29.87,3,10.26,10.26,0,0,0,25,1.81C20.7,1.81,18,5.4,18,5.4c-5.6-1.58-6.53,3.48-6.53,3.48A6.43,6.43,0,0,0,8,17.63c-2.2.06-2.57,1.31-3.13,2.49H58.3C58,17.85,57,15.1,55.48,13.86ZM15.06,17.22l-.4,0a1.19,1.19,0,0,1,.22-2.36,1.32,1.32,0,0,0,1.47-1.22,1.2,1.2,0,0,1,1.37-1,1.18,1.18,0,0,1,1,1.35A3.74,3.74,0,0,1,15.06,17.22ZM26.59,8.11a1.81,1.81,0,0,0-1.44-.32,3.5,3.5,0,0,0-1.82,1.57,1.19,1.19,0,0,1-1,.61,1.1,1.1,0,0,1-.57-.16,1.18,1.18,0,0,1-.46-1.6A5.93,5.93,0,0,1,24.55,5.5a4.19,4.19,0,0,1,3.31.61,1.18,1.18,0,0,1-1.27,2Zm7.94,6.82a1.18,1.18,0,0,1-1.55.63A2.6,2.6,0,0,0,30.1,17a1.18,1.18,0,0,1-2.16-1c.9-2,3.65-3.63,5.95-2.66A1.18,1.18,0,0,1,34.53,14.93Zm7.28-2.6a1.18,1.18,0,0,1-1.18-1.18c0-1.63-1.77-1.85-2.12-1.88a1.18,1.18,0,0,1,.15-2.36C40.16,7,43,8,43,11.15A1.18,1.18,0,0,1,41.81,12.33ZM49.57,15a3.81,3.81,0,0,1-3.74,3.29,3.19,3.19,0,0,1-.45,0,1.18,1.18,0,0,1,.34-2.34c.36,0,1.22,0,1.54-1.44a1.19,1.19,0,0,1,1.42-.89A1.17,1.17,0,0,1,49.57,15Z" fill="none" stroke="#00162c" stroke-miterlimit="10" stroke-width="1.8"/></g></g></svg>