<svg xmlns="http://www.w3.org/2000/svg" viewBox="0 0 61.74 62.57"><title>materials_1</title><g id="Layer_2" data-name="Layer 2"><g id="Layer_1-2" data-name="Layer 1"><path d="M58,61H45.36a7.24,7.24,0,0,0,5.91-7.1,7.61,7.61,0,0,0-.09-1.08h2.75l3.63-19.33H3.86L7.5,52.84h2.89a7.61,7.61,0,0,0-.09,1.08A7.24,7.24,0,0,0,16.21,61H3.39a.78.78,0,1,0,0,1.55H58A.78.78,0,1,0,58,61m-9.89-7.1a4.07,4.07,0,0,1-8.14,0,3.81,3.81,0,0,1,.16-1.08h1.62a2.42,2.42,0,0,0-.25,1.08,2.55,2.55,0,0,0,5.09,0,2.42,2.42,0,0,0-.25-1.08H48a3.81,3.81,0,0,1,.15,1.08m-34.65,0a3.81,3.81,0,0,1,.15-1.08h1.62A2.42,2.42,0,0,0,15,53.92a2.55,2.55,0,0,0,5.09,0,2.42,2.42,0,0,0-.25-1.08h1.62a3.81,3.81,0,0,1,.16,1.08,4.07,4.07,0,0,1-8.14,0m11.29,0a7.61,7.61,0,0,0-.09-1.08H36.91a7.61,7.61,0,0,0-.09,1.08A7.23,7.23,0,0,0,42.73,61H18.84a7.23,7.23,0,0,0,5.91-7.1" fill="#00c4b3"/><path d="M60.63,20.9h-3.1v0l-54.06,0H1.12A1.12,1.12,0,0,0,0,22v6.83A1.12,1.12,0,0,0,1.12,30H3.19l.36,1.89H57.88L58.23,30h2.4a1.12,1.12,0,0,0,1.11-1.12V22a1.11,1.11,0,0,0-1.11-1.11" fill="#00c4b3"/><path d="M54.58,13a7.84,7.84,0,0,0-2.1-1.28l-.8-.27v-.08A6.12,6.12,0,0,0,45.75,5a5,5,0,0,0-1,.09,4,4,0,0,0-3.9-3.64,3.88,3.88,0,0,0-2.42.86A6.26,6.26,0,0,0,29,2.05,10.26,10.26,0,0,0,24.05.91C19.8.91,17.11,4.5,17.11,4.5,11.51,2.92,10.58,8,10.58,8a6.42,6.42,0,0,0-3.45,8.74C4.93,16.79,4.56,18,4,19.22H57.4c-.32-2.27-1.27-5-2.82-6.26M14.16,16.31a2.75,2.75,0,0,1-.4,0A1.18,1.18,0,1,1,14,13.94a1.32,1.32,0,0,0,1.47-1.22,1.2,1.2,0,0,1,1.37-1,1.18,1.18,0,0,1,1,1.35,3.73,3.73,0,0,1-3.63,3.2m11.53-9.1a1.81,1.81,0,0,0-1.44-.32,3.5,3.5,0,0,0-1.82,1.57,1.19,1.19,0,0,1-1,.61,1.1,1.1,0,0,1-.57-.16,1.18,1.18,0,0,1-.46-1.6A5.93,5.93,0,0,1,23.65,4.6,4.15,4.15,0,0,1,27,5.21a1.18,1.18,0,0,1-1.27,2M33.63,14a1.18,1.18,0,0,1-1.55.63A2.6,2.6,0,0,0,29.2,16.1a1.18,1.18,0,0,1-2.16-1c.9-2.05,3.65-3.63,6-2.66A1.18,1.18,0,0,1,33.63,14m7.28-2.6a1.18,1.18,0,0,1-1.18-1.18c0-1.63-1.77-1.85-2.12-1.88A1.18,1.18,0,0,1,37.76,6c1.5.09,4.34,1.1,4.34,4.24a1.18,1.18,0,0,1-1.19,1.18m7.76,2.63a3.81,3.81,0,0,1-3.74,3.29,3.19,3.19,0,0,1-.45,0A1.18,1.18,0,0,1,44.82,15c.36,0,1.22,0,1.54-1.44a1.19,1.19,0,0,1,1.42-.89,1.17,1.17,0,0,1,.89,1.41" fill="#00c4b3"/></g></g></svg>