<svg xmlns="http://www.w3.org/2000/svg" viewBox="0 0 68.48 64.37"><title>real-estate-outline_2</title><g id="Layer_2" data-name="Layer 2"><g id="Layer_1-2" data-name="Layer 1"><path d="M66.85,60.05H64.59V12.63a1.09,1.09,0,0,0-.41-.9.58.58,0,0,0-.77.09L59.32,16V1.83A.85.85,0,0,0,58.58.9H42.33a.85.85,0,0,0-.74.93V32.12h-4.1V10.63a.85.85,0,0,0-.74-.93H26.86V5.38a.92.92,0,0,0-.55-.9L15.69.93a.64.64,0,0,0-.64.16,1.05,1.05,0,0,0-.29.74V20.37H12.39V12.13a.85.85,0,0,0-.73-.93H7.2a.85.85,0,0,0-.74.93v8.24H4.71A.85.85,0,0,0,4,21.3V60.05H1.64c-.41,0-.74.76-.74,1.71s.33,1.71.74,1.71H66.85c.4,0,.73-.76.73-1.71s-.33-1.71-.73-1.71" fill="none" stroke="#00162c" stroke-miterlimit="10" stroke-width="1.8"/></g></g></svg>