<svg xmlns="http://www.w3.org/2000/svg" viewBox="0 0 66.68 62.57"><title>real-estate_1</title><g id="Layer_2" data-name="Layer 2"><g id="Layer_1-2" data-name="Layer 1"><path d="M66,59.15H63.69V11.73a1.09,1.09,0,0,0-.41-.9.58.58,0,0,0-.77.09l-4.09,4.19V.93A.85.85,0,0,0,57.68,0H41.43a.85.85,0,0,0-.74.93V31.22h-4.1V9.73a.85.85,0,0,0-.74-.93H26V4.48a.92.92,0,0,0-.55-.9L14.79,0a.64.64,0,0,0-.64.16,1.05,1.05,0,0,0-.29.74V19.47H11.49V11.22a.84.84,0,0,0-.73-.92H6.3a.84.84,0,0,0-.74.92v8.25H3.81a.85.85,0,0,0-.74.93V59.15H.74c-.41,0-.74.76-.74,1.71s.33,1.71.74,1.71H66c.4,0,.73-.76.73-1.71s-.33-1.71-.73-1.71" fill="#17479e"/></g></g></svg>