<svg xmlns="http://www.w3.org/2000/svg" viewBox="0 0 50.56 62.57"><title>utilities-outline_1</title><g id="Layer_2" data-name="Layer 2"><g id="Layer_1-2" data-name="Layer 1"><path d="M1.13,13.89H5a1.13,1.13,0,1,0,0-2.25H1.13a1.13,1.13,0,1,0,0,2.25" fill="#00162c"/><path d="M1.13,17.63H5a1.13,1.13,0,0,0,0-2.26H1.13a1.13,1.13,0,0,0,0,2.26" fill="#00162c"/><path d="M1.13,28.84H5a1.13,1.13,0,1,0,0-2.26H1.13a1.13,1.13,0,0,0,0,2.26" fill="#00162c"/><path d="M6.1,31.44h0A1.14,1.14,0,0,0,5,30.31H1.13a1.13,1.13,0,0,0,0,2.26H5A1.14,1.14,0,0,0,6.1,31.44" fill="#00162c"/><path d="M49.43,11.64H45.59a1.13,1.13,0,0,0,0,2.26h3.84a1.13,1.13,0,1,0,0-2.26" fill="#00162c"/><path d="M49.43,15.37H45.59a1.13,1.13,0,0,0,0,2.26h3.84a1.13,1.13,0,1,0,0-2.26" fill="#00162c"/><path d="M49.43,26.58H45.59a1.13,1.13,0,0,0,0,2.26h3.84a1.13,1.13,0,0,0,0-2.26" fill="#00162c"/><path d="M49.43,30.31H45.59a1.13,1.13,0,0,0,0,2.26h3.84a1.13,1.13,0,0,0,0-2.26" fill="#00162c"/><path d="M42,57.79a1,1,0,0,1-1.14-.74Q36.19,45.91,31.47,34.8a3.3,3.3,0,0,1-.24-1.21c0-.94,0-1.88,0-2.82a.56.56,0,0,1,.42-.64c4.24-1.58,8.47-3.18,12.72-4.75a2.43,2.43,0,0,1,.85-.12H49a1.28,1.28,0,0,0,1.38-.77c.33-.86-.26-1.62-1.29-1.64-1.26,0-2.51,0-3.77,0H31.68a3.73,3.73,0,0,1-.41,0,2.63,2.63,0,0,1-.06-.48c0-2.28,0-4.55,0-6.83a.8.8,0,0,1,.4-.57q6.4-2.43,12.83-4.82a1.87,1.87,0,0,1,.67-.09H49c.9,0,1.44-.49,1.42-1.23S49.88,7.6,49,7.6H31.33a1,1,0,0,1-1-.54C29.05,5,27.75,3,26.45.91A1.77,1.77,0,0,0,25.33,0h-.1a1.77,1.77,0,0,0-1.12.9C22.81,3,21.51,5,20.23,7.06a1,1,0,0,1-1,.54H1.56C.68,7.6.15,8,.13,8.76S.65,10,1.55,10H5.44a1.84,1.84,0,0,1,.67.09q6.42,2.4,12.83,4.82a.76.76,0,0,1,.39.57c0,2.28,0,4.55,0,6.83a2.63,2.63,0,0,1-.06.48,3.73,3.73,0,0,1-.41,0H5.28c-1.26,0-2.51,0-3.77,0-1,0-1.62.78-1.29,1.64a1.28,1.28,0,0,0,1.37.77H5.36a2.43,2.43,0,0,1,.85.12c4.24,1.57,8.48,3.17,12.72,4.75a.56.56,0,0,1,.42.64c0,.94,0,1.88,0,2.82a3.3,3.3,0,0,1-.24,1.21Q14.4,45.93,9.68,57.05a1,1,0,0,1-1.14.74c-1.56,0-3.12,0-4.7,0v4.8H11c-.28-.89.29-1.07.89-1.28a40.41,40.41,0,0,1,9.83-2.12c1.18-.11,2.35-.16,3.52-.16s2.34.05,3.52.16a40.41,40.41,0,0,1,9.83,2.12c.6.21,1.17.39.89,1.28h7.2v-4.8c-1.57,0-3.14,0-4.7,0M31.24,25.29H37.4s0,.07,0,.1L31.24,27.7Zm0-15.28h6.23v.1l-6.24,2.34Zm-12,2.44-6.24-2.34s0-.07,0-.1H19.3Zm0,15.25-6.18-2.31s0-.06,0-.1h6.16ZM30.88,39.62c1,2.29,1.95,4.56,2.9,6.85a.6.6,0,0,1-.11.53c-.53.58-1.1,1.13-1.62,1.66L27,43.59l3.9-4M25.28,3.56l2.5,4h-5l2.5-4M21.76,10h7c0,.84,0,1.66,0,2.49a.62.62,0,0,1-.21.36l-3.3,3.34L22,12.87a.62.62,0,0,1-.21-.36c0-.83,0-1.65,0-2.49m6.81,14.65c-1,1.19-2.16,2.27-3.29,3.41C24.15,26.94,23,25.86,22,24.67a1.61,1.61,0,0,1,0-1.52c1-1.16,2.14-2.22,3.32-3.38,1.18,1.16,2.31,2.22,3.32,3.38a1.61,1.61,0,0,1,0,1.52M28.75,28v3.71l-1.83-1.84L28.75,28m-5.1,1.87-1.84,1.84V28l1.84,1.87M21.81,19.7V16.1L23.52,18,21.81,19.7M27,18l1.71-1.88v3.6L27,18M20.85,36.91a7.17,7.17,0,0,1,1-1.62c1.08-1.18,2.24-2.29,3.44-3.49,1.2,1.2,2.36,2.31,3.44,3.49a7.17,7.17,0,0,1,1,1.62.53.53,0,0,1-.11.48c-1.42,1.46-2.86,2.9-4.32,4.37-1.46-1.47-2.9-2.91-4.32-4.37a.53.53,0,0,1-.11-.48m-4.07,9.56c.95-2.29,1.92-4.56,2.9-6.85l3.9,4-5.07,5.07c-.52-.53-1.09-1.08-1.62-1.66a.6.6,0,0,1-.11-.53m-1.19,2.8,1.17,1.22-2.94,2.92c.61-1.44,1.19-2.79,1.77-4.14m-1.42,7.51,4.45-4.45,3.13,3.12-7.58,1.33m11.24-1.55a.19.19,0,0,1-.26,0c-1.61-1.57-3.19-3.18-4.76-4.76l4.89-4.88,4.89,4.88c-1.57,1.58-3.15,3.19-4.76,4.76m3.39.22,3.13-3.12,4.46,4.45L28.8,55.45m5-5L35,49.27c.58,1.35,1.15,2.7,1.77,4.14L33.8,50.49" fill="#00162c"/></g></g></svg>